# xmcd
#
# Track frame offsets:
#	150
#	6054
#	28880
#	46203
#	74651
#	96513
#	115317
#	137946
#	162837
#	182531
#	200773
#	216696
#	236814
#	254986
#	275298
#
# Disc length: 3745 seconds
#
# Revision: 1
# Processed by: cddbd v1.5.2PL0 Copyright (c) Steve Scherf et al.
# Submitted via: EZCDAudioConverter 8.0.2.1
#
DISCID=f30e9f0f
DTITLE=Don Hồ - Còn Nghe Tiếng Gọi
DYEAR=2005
DGENRE=World Pop
TTITLE0=Lời mở đầu
TTITLE1=Còn Nghe Tiếng Gọi
TTITLE2=Khúc vĩ cầm xưa
TTITLE3=Cơn mưa đầu đời
TTITLE4=Nỗi đau
TTITLE5=Rằng thì là
TTITLE6=Đêm
TTITLE7=Vẫn còn yêu
TTITLE8=Con tim mù loa
TTITLE9=What A Wonderful World
TTITLE10=Mộng mơ xa rồi
TTITLE11=Tình hồng
TTITLE12=Người tình Việt Nam
TTITLE13=Je Suis Malade
TTITLE14=Lời kết
EXTD=
EXTT0=
EXTT1=
EXTT2=
EXTT3=
EXTT4=
EXTT5=
EXTT6=
EXTT7=
EXTT8=
EXTT9=
EXTT10=
EXTT11=
EXTT12=
EXTT13=
EXTT14=
PLAYORDER=
